<svg xmlns="http://www.w3.org/2000/svg" width="169.543" height="71.728" viewBox="0 0 169.543 71.728"><g transform="translate(-394.786 -150.054)"><path d="M419.813,214.661h1.006v7.04h-1.006Z" fill="#fff"/><path d="M431.4,214.661v7.04h-.825l-4.225-5.25v5.25h-1.005v-7.04h.825l4.224,5.25v-5.25Z" fill="#fff"/><path d="M437.323,215.536h-2.414v-.875h5.823v.875h-2.414V221.7h-.995Z" fill="#fff"/><path d="M449.351,220.826v.875h-5.109v-7.04h4.969v.875h-3.963V217.7h3.53v.855h-3.53v2.273Z" fill="#fff"/><path d="M458.1,221.7l-1.519-2.163c-.188.014-.335.021-.442.021H454.4V221.7h-1.006v-7.04h2.746a3.261,3.261,0,0,1,2.152.654,2.215,2.215,0,0,1,.785,1.8,2.357,2.357,0,0,1-.4,1.388,2.277,2.277,0,0,1-1.146.835L459.2,221.7Zm-.533-3.409a1.437,1.437,0,0,0,.5-1.177,1.42,1.42,0,0,0-.5-1.171,2.269,2.269,0,0,0-1.458-.408H454.4V218.7h1.71A2.252,2.252,0,0,0,457.568,218.292Z" fill="#fff"/><path d="M469.174,214.661v7.04h-.825l-4.224-5.25v5.25h-1.006v-7.04h.825l4.224,5.25v-5.25Z" fill="#fff"/><path d="M478.185,219.941h-3.741l-.774,1.76h-1.036l3.188-7.04h1l3.2,7.04H478.96Zm-.351-.8-1.519-3.451-1.519,3.451Z" fill="#fff"/><path d="M484.522,215.536h-2.414v-.875h5.823v.875h-2.414V221.7h-.995Z" fill="#fff"/><path d="M491.441,214.661h1.005v7.04h-1.005Z" fill="#fff"/><path d="M498.229,221.314a3.459,3.459,0,0,1-1.342-1.292,3.723,3.723,0,0,1,0-3.682,3.459,3.459,0,0,1,1.342-1.292,4.158,4.158,0,0,1,3.833,0,3.437,3.437,0,0,1,1.337,1.288,3.765,3.765,0,0,1,0,3.69,3.429,3.429,0,0,1-1.337,1.288,4.158,4.158,0,0,1-3.833,0Zm3.314-.78a2.583,2.583,0,0,0,.976-.97,2.857,2.857,0,0,0,0-2.766,2.575,2.575,0,0,0-.976-.97,2.761,2.761,0,0,0-1.393-.353,2.813,2.813,0,0,0-1.4.353,2.546,2.546,0,0,0-.986.97,2.857,2.857,0,0,0,0,2.766,2.553,2.553,0,0,0,.986.97,2.813,2.813,0,0,0,1.4.353A2.761,2.761,0,0,0,501.543,220.534Z" fill="#fff"/><path d="M513.889,214.661v7.04h-.825l-4.225-5.25v5.25h-1v-7.04h.825l4.224,5.25v-5.25Z" fill="#fff"/><path d="M522.9,219.941h-3.741l-.775,1.76h-1.035l3.188-7.04h1l3.2,7.04h-1.056Zm-.352-.8-1.518-3.451-1.519,3.451Z" fill="#fff"/><path d="M528.19,214.661H529.2v6.165h3.811v.875H528.19Z" fill="#fff"/><rect width="9.368" height="1.089" transform="translate(471.726 171.21)" fill="#fff"/><path d="M454.166,159.676c.273.13.545.35,1,.61a7.05,7.05,0,0,0,3.324.545c1.48,0,3.376-.091,4.635-.22a4.056,4.056,0,0,0-.272.96c-.935.065-3.169.13-4.389.13a6.981,6.981,0,0,1-3.506-.636c-.532-.325-.947-.688-1.246-.688-.468,0-1.142.675-1.844,1.48l-.6-.8a6.179,6.179,0,0,1,1.96-1.415v-4.025h-1.883V154.7h2.818Zm-.546-6.311a16.487,16.487,0,0,0-2-2.233l.714-.506a15.492,15.492,0,0,1,2.052,2.156Zm4.675,3.909a8.825,8.825,0,0,1-2.986,2.635,3.751,3.751,0,0,0-.623-.727,8.019,8.019,0,0,0,3.193-2.636h-2.531v-3.193H458.3v-1.065h-3.453v-.844H458.3v-1.325h.948v1.325H462.9v.844h-3.661v1.065h3.077v3.193h-2.765a23.921,23.921,0,0,1,3.128,2.507l-.622.649a21.448,21.448,0,0,0-2.818-2.4v3H458.3Zm-2.051-1.506H458.3v-1.649h-2.051Zm3-1.649v1.649h2.142v-1.649Z" fill="#fff"/><path d="M477.293,158.482c.935,1.441,2.636,2.258,5,2.544a3.772,3.772,0,0,0-.585.9c-2.622-.429-4.376-1.467-5.375-3.337-.649,1.7-2.039,2.766-5.363,3.337a3.281,3.281,0,0,0-.506-.87c2.986-.429,4.258-1.246,4.843-2.57H471v-.87h4.6a7.672,7.672,0,0,0,.17-1h-5.09v-.857h5.206v-1.09H471.84v-.844h4.038v-1.052H471.2v-.87h2.661a7.194,7.194,0,0,0-1-1.506l.831-.338a6.34,6.34,0,0,1,1.142,1.637l-.467.207h3.415a14.447,14.447,0,0,0,1.117-1.844l.986.3a17.536,17.536,0,0,1-1.039,1.545h2.727v.87h-4.739v1.052h4.155v.844h-4.155v1.09h5.336v.857h-5.414c-.039.351-.091.688-.156,1h5.414v.87Z" fill="#fff"/><path d="M492.526,159.325c.26.156.532.428.96.7a6.045,6.045,0,0,0,3.4.65,45.319,45.319,0,0,0,4.662-.247,3.459,3.459,0,0,0-.286,1.013c-.857.065-3.233.143-4.4.143a6.177,6.177,0,0,1-3.61-.754c-.52-.35-.948-.818-1.233-.818-.429,0-1.066.792-1.74,1.74l-.662-.883a5.76,5.76,0,0,1,1.948-1.61v-3.414h-1.793v-.935h2.753Zm-.753-6.037a13.339,13.339,0,0,0-1.584-2.506l.818-.4a11.735,11.735,0,0,1,1.623,2.441Zm8.66,6.219a34.447,34.447,0,0,0-3.363-3.986,6.246,6.246,0,0,1-3.181,4.077,3.281,3.281,0,0,0-.662-.74c2.2-1.117,2.973-3.012,3.259-5.284h-3.168v-.935h3.272c.065-.805.078-1.636.1-2.506h.974c-.026.856-.051,1.687-.116,2.506h3.713v.935h-3.817c-.026.311-.078.61-.13.921a37.316,37.316,0,0,1,3.921,4.4Z" fill="#fff"/><path d="M421.573,194.775v9.69h-3.394V184.259h3.394v9.211h10.154v-9.211h3.394v20.206h-3.394v-9.69Z" fill="#fff"/><path d="M443.969,184.259h3.394v13.113a6.632,6.632,0,0,0,.443,2.43,5.9,5.9,0,0,0,1.269,1.994,5.973,5.973,0,0,0,1.986,1.349,7.126,7.126,0,0,0,5.209,0,5.824,5.824,0,0,0,1.972-1.349,5.951,5.951,0,0,0,1.248-1.994,6.754,6.754,0,0,0,.435-2.43V184.259h1.494v13.113a8.448,8.448,0,0,1-.5,2.923,6.335,6.335,0,0,1-1.574,2.408,7.582,7.582,0,0,1-2.749,1.638,11.916,11.916,0,0,1-4.024.6,10.513,10.513,0,0,1-3.7-.6,7.77,7.77,0,0,1-2.7-1.646,6.9,6.9,0,0,1-1.646-2.436,7.885,7.885,0,0,1-.558-2.96Z" fill="#fff"/><path d="M470.124,184.259h3.466l7.862,15.506h.16l7.717-15.506h3.408v20.206h-3.408V187.914h-.116l-8.283,16.551h-.7L471.85,188.03h-.232v16.435h-1.494Z" fill="#fff"/><path d="M513.835,184.259h6.717a21.649,21.649,0,0,1,5.359.58,9.2,9.2,0,0,1,3.735,1.857,9.547,9.547,0,0,1,2.575,3.343,9.871,9.871,0,0,1,.863,4.141,10.351,10.351,0,0,1-.776,4,9.4,9.4,0,0,1-2.263,3.271,10.635,10.635,0,0,1-3.67,2.205,14.379,14.379,0,0,1-5,.8h-7.543Zm3.394,18.727h3.6a9.1,9.1,0,0,0,3.22-.566,7.413,7.413,0,0,0,2.633-1.675A7.868,7.868,0,0,0,528.45,198a10.191,10.191,0,0,0,.645-3.764,9.318,9.318,0,0,0-.609-3.417,7.947,7.947,0,0,0-1.705-2.683,7.769,7.769,0,0,0-2.611-1.755,8.53,8.53,0,0,0-3.314-.631h-3.627Z" fill="#fff"/><path d="M547.2,188.422l-7.557,16.043h-1.7l9.734-20.67h.841l9.516,20.67h-3.453Z" fill="#fff"/><path d="M501.971,190.773v13.692h3.075V189.51Z" fill="#fff"/><path d="M501.971,184.27V187l4.6-1.89V182.38Z" fill="#fff"/><path d="M409.1,187.212a3.6,3.6,0,0,1-3.288,3.288.012.012,0,0,0,0,.024,3.6,3.6,0,0,1,3.288,3.288.012.012,0,0,0,.024,0,3.6,3.6,0,0,1,3.288-3.288.012.012,0,0,0,0-.024,3.6,3.6,0,0,1-3.288-3.288A.012.012,0,0,0,409.1,187.212Z" fill="#fff"/><path d="M409.684,197.266a6.381,6.381,0,0,0-1.388-1.581,13.056,13.056,0,0,0-1.971-1.34c-.727-.406-1.485-.8-2.254-1.181s-1.52-.749-2.257-1.115a17.435,17.435,0,0,1-1.987-1.145,6.3,6.3,0,0,1-1.413-1.262,2.365,2.365,0,0,1-.535-1.5,2.663,2.663,0,0,1,.262-1.137,3,3,0,0,1,.788-1,4,4,0,0,1,1.308-.713,6.944,6.944,0,0,1,2.067-.27,8.056,8.056,0,0,1,2.252.271v0c.056.016.114.04.171.059a5.184,5.184,0,0,1,1.412.678c.01.006.018.016.027.022a5.822,5.822,0,0,1,1.348,1.156l0,0a3.511,3.511,0,0,0,.471-1.134l.008-.035-.025-.029a5.69,5.69,0,0,0-.543-.537,7.344,7.344,0,0,0-5.107-1.654,10.036,10.036,0,0,0-3.114.407,6.642,6.642,0,0,0-2.22,1.138,4.89,4.89,0,0,0-1.366,1.713,4.953,4.953,0,0,0-.464,2.138,4.018,4.018,0,0,0,.508,2.033,6.215,6.215,0,0,0,1.342,1.6,11.168,11.168,0,0,0,1.907,1.305c.713.391,1.456.771,2.207,1.131.7.334,1.426.684,2.211,1.071a13.2,13.2,0,0,1,1.923,1.145,5.932,5.932,0,0,1,1.368,1.35,2.859,2.859,0,0,1,.525,1.685,2.547,2.547,0,0,1-.385,1.39,3.407,3.407,0,0,1-1.011,1.011,4.806,4.806,0,0,1-1.427.6,7.346,7.346,0,0,1-5.4-.892,6.06,6.06,0,0,1-2.251-3.007l-.027-.076-1.861.712.028.069a8.187,8.187,0,0,0,1.061,1.884,6.3,6.3,0,0,0,1.6,1.479,7.452,7.452,0,0,0,2.166.926,11.04,11.04,0,0,0,2.794.325,11.386,11.386,0,0,0,3.389-.46,7.328,7.328,0,0,0,2.43-1.242,5.157,5.157,0,0,0,1.459-1.832,5.248,5.248,0,0,0,.493-2.241A3.616,3.616,0,0,0,409.684,197.266Z" fill="#fff"/><path d="M563.067,184.019a2.458,2.458,0,0,1,.926.926,2.694,2.694,0,0,1-.008,2.62,2.526,2.526,0,0,1-.937.941,2.659,2.659,0,0,1-2.616,0,2.511,2.511,0,0,1-.93-.937,2.665,2.665,0,0,1,0-2.6,2.5,2.5,0,0,1,.933-.937,2.575,2.575,0,0,1,1.318-.344A2.606,2.606,0,0,1,563.067,184.019Zm-.227,4.136a2.13,2.13,0,0,0,.779-.795,2.3,2.3,0,0,0,.007-2.21,2.045,2.045,0,0,0-.768-.779,2.158,2.158,0,0,0-1.1-.286,2.183,2.183,0,0,0-1.113.289,2.08,2.08,0,0,0-.779.787,2.308,2.308,0,0,0,0,2.211,2.069,2.069,0,0,0,.776.786,2.234,2.234,0,0,0,2.2,0Z" fill="#fff"/><path d="M562.44,186.675a.835.835,0,0,0,.385-.31.874.874,0,0,0,.135-.494.811.811,0,0,0-.293-.658,1.212,1.212,0,0,0-.8-.244h-1.08v2.6h.566v-.79h.586l.514.79h.566Zm-.178-.465a.663.663,0,0,1-.428.122h-.488v-.915h.488a.681.681,0,0,1,.428.118.4.4,0,0,1,.151.336A.41.41,0,0,1,562.262,186.21Z" fill="#fff"/></g></svg>