<svg xmlns="http://www.w3.org/2000/svg" width="210.333" height="70.693" viewBox="0 0 210.333 70.693"><g transform="translate(-49.263 -26.824)"><g transform="translate(49.263 26.824)"><path d="M322.273,209.993a35.346,35.346,0,1,1,35.347-35.346A35.386,35.386,0,0,1,322.273,209.993Zm0-69.132a33.785,33.785,0,1,0,33.786,33.786A33.824,33.824,0,0,0,322.273,140.861Z" transform="translate(-286.926 -139.3)" fill="#a86007"/><g transform="translate(21.158 15.588)"><path d="M348.165,168.243a6.722,6.722,0,0,1-6.148,6.148.023.023,0,0,0,0,.045,6.723,6.723,0,0,1,6.148,6.148.023.023,0,0,0,.045,0,6.723,6.723,0,0,1,6.148-6.148.023.023,0,0,0,0-.045,6.723,6.723,0,0,1-6.148-6.148A.023.023,0,0,0,348.165,168.243Z" transform="translate(-321.399 -161.881)" fill="#a86007"/><path d="M342.688,185.019a11.891,11.891,0,0,0-2.6-2.955,24.17,24.17,0,0,0-3.685-2.507c-1.359-.759-2.777-1.5-4.215-2.209s-2.842-1.4-4.22-2.085a32.247,32.247,0,0,1-3.715-2.14,11.752,11.752,0,0,1-2.642-2.36,4.421,4.421,0,0,1-1-2.8,4.984,4.984,0,0,1,.489-2.125,5.626,5.626,0,0,1,1.474-1.877,7.49,7.49,0,0,1,2.446-1.334,12.972,12.972,0,0,1,3.865-.5,15.082,15.082,0,0,1,4.211.507l0-.005c.1.03.213.074.319.11A9.753,9.753,0,0,1,336.063,164c.017.012.033.029.051.041a10.909,10.909,0,0,1,2.52,2.162l0-.008a6.574,6.574,0,0,0,.881-2.121l.015-.067-.047-.052a10.514,10.514,0,0,0-1.015-1.005c-2.471-2.125-5.327-3.049-9.55-3.092a18.749,18.749,0,0,0-5.823.76,12.409,12.409,0,0,0-4.15,2.128,9.165,9.165,0,0,0-2.556,3.2,9.277,9.277,0,0,0-.867,4,7.508,7.508,0,0,0,.95,3.8,11.619,11.619,0,0,0,2.51,2.987,20.9,20.9,0,0,0,3.564,2.439c1.334.732,2.723,1.442,4.129,2.114,1.314.625,2.667,1.28,4.134,2a24.855,24.855,0,0,1,3.6,2.142,11.088,11.088,0,0,1,2.557,2.526,5.344,5.344,0,0,1,.983,3.149,4.754,4.754,0,0,1-.721,2.6,6.346,6.346,0,0,1-1.89,1.89,8.976,8.976,0,0,1-2.667,1.121,13.728,13.728,0,0,1-10.1-1.668,11.334,11.334,0,0,1-4.208-5.621l-.051-.142-3.48,1.331.052.127a15.321,15.321,0,0,0,1.984,3.524,11.8,11.8,0,0,0,2.985,2.765,13.934,13.934,0,0,0,4.05,1.732,20.706,20.706,0,0,0,5.225.607,21.275,21.275,0,0,0,6.336-.86,13.759,13.759,0,0,0,4.545-2.322,9.659,9.659,0,0,0,2.727-3.426,9.814,9.814,0,0,0,.921-4.191A6.748,6.748,0,0,0,342.688,185.019Z" transform="translate(-314.831 -159.859)" fill="#a86007"/></g></g><g transform="translate(131.045 34.978)"><g transform="translate(18.976 48.925)"><path d="M419.813,214.661h.763V220h-.763Z" transform="translate(-419.813 -214.6)" fill="#a86007"/><path d="M429.936,214.661V220h-.626l-3.2-3.981V220h-.762v-5.338h.626l3.2,3.981v-3.981Z" transform="translate(-421.151 -214.6)" fill="#a86007"/><path d="M436.739,215.324h-1.83v-.663h4.415v.663h-1.83V220h-.754Z" transform="translate(-423.463 -214.6)" fill="#a86007"/><path d="M448.116,219.335V220h-3.874v-5.338h3.768v.663h-3v1.639h2.677v.648H445v1.723Z" transform="translate(-425.719 -214.6)" fill="#a86007"/><path d="M456.963,220l-1.152-1.64c-.143.011-.254.016-.335.016h-1.319V220h-.763v-5.338h2.082a2.473,2.473,0,0,1,1.632.5,1.679,1.679,0,0,1,.6,1.365,1.787,1.787,0,0,1-.306,1.052,1.726,1.726,0,0,1-.869.633L457.794,220Zm-.4-2.585a1.09,1.09,0,0,0,.381-.892,1.077,1.077,0,0,0-.381-.888,1.721,1.721,0,0,0-1.106-.309h-1.3v2.4h1.3A1.707,1.707,0,0,0,456.559,217.414Z" transform="translate(-427.932 -214.6)" fill="#a86007"/><path d="M467.71,214.661V220h-.625l-3.2-3.981V220h-.763v-5.338h.625l3.2,3.981v-3.981Z" transform="translate(-430.283 -214.6)" fill="#a86007"/><path d="M476.843,218.664h-2.837L473.42,220h-.786l2.417-5.338h.755L478.231,220h-.8Zm-.266-.61-1.152-2.617-1.152,2.617Z" transform="translate(-432.584 -214.6)" fill="#a86007"/><path d="M483.938,215.324h-1.83v-.663h4.415v.663h-1.83V220h-.754Z" transform="translate(-434.875 -214.6)" fill="#a86007"/><path d="M491.441,214.661h.762V220h-.762Z" transform="translate(-437.131 -214.6)" fill="#a86007"/><path d="M497.787,219.686a2.623,2.623,0,0,1-1.018-.98,2.823,2.823,0,0,1,0-2.792,2.623,2.623,0,0,1,1.018-.98,3.153,3.153,0,0,1,2.906,0,2.606,2.606,0,0,1,1.014.977,2.855,2.855,0,0,1,0,2.8,2.6,2.6,0,0,1-1.014.977,3.153,3.153,0,0,1-2.906,0Zm2.513-.591a1.958,1.958,0,0,0,.74-.735,2.166,2.166,0,0,0,0-2.1,1.952,1.952,0,0,0-.74-.735,2.093,2.093,0,0,0-1.056-.268,2.133,2.133,0,0,0-1.063.268,1.93,1.93,0,0,0-.748.735,2.166,2.166,0,0,0,0,2.1,1.936,1.936,0,0,0,.748.735,2.133,2.133,0,0,0,1.063.268A2.093,2.093,0,0,0,500.3,219.094Z" transform="translate(-438.33 -214.58)" fill="#a86007"/><path d="M512.425,214.661V220H511.8l-3.2-3.981V220h-.762v-5.338h.625l3.2,3.981v-3.981Z" transform="translate(-441.095 -214.6)" fill="#a86007"/><path d="M521.557,218.664H518.72L518.133,220h-.785l2.417-5.338h.755L522.945,220h-.8Zm-.267-.61-1.151-2.617-1.152,2.617Z" transform="translate(-443.395 -214.6)" fill="#a86007"/><path d="M528.19,214.661h.763v4.674h2.89V220H528.19Z" transform="translate(-446.016 -214.6)" fill="#a86007"/></g><rect width="7.103" height="0.826" transform="translate(58.338 16.041)" fill="#a86007"/><g transform="translate(42.828)"><path d="M453.466,157.365c.207.1.413.265.758.462a5.345,5.345,0,0,0,2.52.413c1.122,0,2.56-.069,3.514-.167a3.073,3.073,0,0,0-.206.728c-.709.049-2.4.1-3.328.1a5.293,5.293,0,0,1-2.658-.482c-.4-.246-.718-.522-.945-.522-.355,0-.866.512-1.4,1.122l-.453-.61a4.685,4.685,0,0,1,1.486-1.073v-3.052h-1.428v-.689h2.137Zm-.414-4.785a12.5,12.5,0,0,0-1.516-1.693l.541-.384a11.75,11.75,0,0,1,1.556,1.635Zm3.545,2.964a6.691,6.691,0,0,1-2.264,2,2.844,2.844,0,0,0-.472-.551,6.08,6.08,0,0,0,2.421-2h-1.919v-2.421H456.6v-.808h-2.618v-.64H456.6v-1h.719v1h2.776v.64h-2.776v.808h2.333v2.421h-2.1a18.138,18.138,0,0,1,2.372,1.9l-.472.492a16.266,16.266,0,0,0-2.137-1.822v2.275H456.6Zm-1.555-1.142H456.6v-1.25h-1.555Zm2.274-1.25v1.25h1.624v-1.25Z" transform="translate(-451.271 -150.07)" fill="#a86007"/><path d="M475.642,156.444a4.937,4.937,0,0,0,3.791,1.929,2.859,2.859,0,0,0-.444.679,5.135,5.135,0,0,1-4.075-2.53c-.492,1.29-1.546,2.1-4.066,2.53a2.486,2.486,0,0,0-.384-.66c2.264-.325,3.229-.945,3.672-1.949h-3.269v-.66h3.485a5.842,5.842,0,0,0,.129-.759h-3.859v-.65h3.947v-.826h-3.062v-.64h3.062v-.8h-3.544v-.66h2.018a5.455,5.455,0,0,0-.757-1.142l.63-.256a4.807,4.807,0,0,1,.866,1.241l-.354.157h2.589a10.967,10.967,0,0,0,.847-1.4l.748.227a13.3,13.3,0,0,1-.788,1.171h2.068v.66H475.3v.8h3.15v.64H475.3v.826h4.046v.65h-4.105c-.03.266-.069.522-.118.759h4.1v.66Z" transform="translate(-455.911 -150.054)" fill="#a86007"/><path d="M491.823,157.1c.2.118.4.325.728.532a4.584,4.584,0,0,0,2.579.493,34.362,34.362,0,0,0,3.535-.187,2.622,2.622,0,0,0-.217.768c-.65.049-2.451.108-3.337.108a4.683,4.683,0,0,1-2.737-.572c-.394-.265-.719-.62-.935-.62-.325,0-.808.6-1.319,1.319l-.5-.67a4.367,4.367,0,0,1,1.477-1.221v-2.589h-1.359v-.709h2.087Zm-.571-4.577a10.114,10.114,0,0,0-1.2-1.9l.62-.306a8.9,8.9,0,0,1,1.231,1.851Zm6.566,4.715a26.121,26.121,0,0,0-2.55-3.022,4.736,4.736,0,0,1-2.412,3.091,2.489,2.489,0,0,0-.5-.561,4.683,4.683,0,0,0,2.471-4.006h-2.4v-.709H494.9c.049-.61.059-1.24.078-1.9h.739c-.02.649-.039,1.279-.088,1.9h2.815v.709h-2.894c-.02.236-.059.463-.1.7a28.3,28.3,0,0,1,2.973,3.338Z" transform="translate(-460.542 -150.073)" fill="#a86007"/></g><g transform="translate(0 24.51)"><g transform="translate(17.737)"><g transform="translate(0 1.073)"><path d="M420.752,192.232v7.347h-2.573V184.259h2.573v6.984h7.7v-6.984h2.573V199.58h-2.573v-7.347Z" transform="translate(-418.179 -183.907)" fill="#a86007"/><path d="M443.969,184.259h2.573V194.2a5.028,5.028,0,0,0,.336,1.842,4.469,4.469,0,0,0,.962,1.512,4.528,4.528,0,0,0,1.506,1.023,5.4,5.4,0,0,0,3.95,0,4.415,4.415,0,0,0,1.5-1.023,4.512,4.512,0,0,0,.946-1.512,5.12,5.12,0,0,0,.33-1.842v-9.943H457.2V194.2a6.4,6.4,0,0,1-.38,2.216,4.8,4.8,0,0,1-1.193,1.826,5.748,5.748,0,0,1-2.084,1.242,9.035,9.035,0,0,1-3.051.457,7.972,7.972,0,0,1-2.805-.457,5.892,5.892,0,0,1-2.046-1.248,5.23,5.23,0,0,1-1.248-1.847,5.979,5.979,0,0,1-.423-2.244Z" transform="translate(-424.414 -183.907)" fill="#a86007"/><path d="M470.124,184.259h2.628l5.961,11.757h.121l5.851-11.757h2.584V199.58h-2.584V187.03H484.6l-6.28,12.549h-.528l-6.357-12.461h-.176V199.58h-1.133Z" transform="translate(-430.738 -183.907)" fill="#a86007"/><path d="M513.835,184.259h5.093a16.415,16.415,0,0,1,4.063.44,6.979,6.979,0,0,1,2.832,1.408,7.238,7.238,0,0,1,1.952,2.535,7.484,7.484,0,0,1,.654,3.14,7.847,7.847,0,0,1-.588,3.036,7.124,7.124,0,0,1-1.716,2.48,8.065,8.065,0,0,1-2.783,1.672,10.9,10.9,0,0,1-3.789.61h-5.719Zm2.573,14.2h2.728a6.9,6.9,0,0,0,2.441-.429,5.62,5.62,0,0,0,2-1.27,5.966,5.966,0,0,0,1.342-2.079,7.728,7.728,0,0,0,.489-2.854,7.066,7.066,0,0,0-.462-2.591,6.026,6.026,0,0,0-1.293-2.034,5.889,5.889,0,0,0-1.98-1.331,6.467,6.467,0,0,0-2.513-.478h-2.75Z" transform="translate(-441.307 -183.907)" fill="#a86007"/><path d="M544.961,187.3l-5.73,12.164h-1.287l7.381-15.672h.638l7.215,15.672h-2.618Z" transform="translate(-447.136 -183.795)" fill="#a86007"/></g><path d="M501.971,190.467v10.382H504.3V189.51Z" transform="translate(-438.438 -184.104)" fill="#a86007"/><g transform="translate(63.533)"><path d="M501.971,183.813v2.067l3.489-1.433V182.38Z" transform="translate(-501.971 -182.38)" fill="#a86007"/></g></g><g transform="translate(0 1.084)"><path d="M408.3,187.209a2.726,2.726,0,0,1-2.493,2.493.009.009,0,0,0,0,.018,2.726,2.726,0,0,1,2.493,2.493.009.009,0,0,0,.018,0,2.726,2.726,0,0,1,2.493-2.493.009.009,0,0,0,0-.018,2.726,2.726,0,0,1-2.493-2.493A.009.009,0,0,0,408.3,187.209Z" transform="translate(-397.449 -184.63)" fill="#a86007"/><path d="M406.082,194.013a4.837,4.837,0,0,0-1.052-1.2,9.9,9.9,0,0,0-1.494-1.016c-.551-.308-1.126-.61-1.709-.9s-1.152-.568-1.711-.845a13.22,13.22,0,0,1-1.507-.868,4.776,4.776,0,0,1-1.071-.957,1.793,1.793,0,0,1-.406-1.136,2.019,2.019,0,0,1,.2-.862,2.277,2.277,0,0,1,.6-.761,3.034,3.034,0,0,1,.992-.541,5.265,5.265,0,0,1,1.567-.2,6.108,6.108,0,0,1,1.708.205v0c.042.012.086.03.13.045a3.93,3.93,0,0,1,1.071.514c.008,0,.014.012.02.017a4.414,4.414,0,0,1,1.022.877l0,0a2.661,2.661,0,0,0,.357-.86l.006-.027-.019-.022a4.311,4.311,0,0,0-.412-.407,5.568,5.568,0,0,0-3.872-1.254,7.609,7.609,0,0,0-2.361.309,5.036,5.036,0,0,0-1.683.863,3.708,3.708,0,0,0-1.036,1.3,3.756,3.756,0,0,0-.352,1.621,3.046,3.046,0,0,0,.385,1.541,4.713,4.713,0,0,0,1.018,1.211,8.47,8.47,0,0,0,1.446.989c.541.3,1.1.585,1.673.858.533.253,1.081.519,1.676.812a10.011,10.011,0,0,1,1.458.868,4.5,4.5,0,0,1,1.037,1.024,2.168,2.168,0,0,1,.4,1.278,1.931,1.931,0,0,1-.292,1.054,2.583,2.583,0,0,1-.767.767,3.644,3.644,0,0,1-1.082.455,5.57,5.57,0,0,1-4.1-.676,4.6,4.6,0,0,1-1.707-2.28l-.02-.058-1.411.54.021.052a6.207,6.207,0,0,0,.8,1.428,4.775,4.775,0,0,0,1.21,1.121,5.651,5.651,0,0,0,1.642.7,8.371,8.371,0,0,0,2.118.246,8.633,8.633,0,0,0,2.57-.349,5.555,5.555,0,0,0,1.842-.942,3.91,3.91,0,0,0,1.106-1.389,3.98,3.98,0,0,0,.374-1.7A2.742,2.742,0,0,0,406.082,194.013Z" transform="translate(-394.786 -183.81)" fill="#a86007"/></g></g><g transform="translate(124.633 25.498)"><path d="M562.123,183.938a1.863,1.863,0,0,1,.7.7,2.042,2.042,0,0,1-.006,1.987,1.916,1.916,0,0,1-.711.714,2.016,2.016,0,0,1-1.983,0,1.9,1.9,0,0,1-.705-.71,2.02,2.02,0,0,1,0-1.975,1.9,1.9,0,0,1,.707-.71,1.952,1.952,0,0,1,1-.261A1.976,1.976,0,0,1,562.123,183.938Zm-.172,3.136a1.616,1.616,0,0,0,.591-.6,1.746,1.746,0,0,0,.005-1.676,1.55,1.55,0,0,0-.582-.591,1.636,1.636,0,0,0-.838-.217,1.655,1.655,0,0,0-.844.219,1.576,1.576,0,0,0-.591.6,1.749,1.749,0,0,0,0,1.676,1.569,1.569,0,0,0,.588.6,1.694,1.694,0,0,0,1.67,0Z" transform="translate(-559.162 -183.683)" fill="#a86007"/><path d="M562.04,186.263a.634.634,0,0,0,.292-.235.663.663,0,0,0,.1-.375.614.614,0,0,0-.222-.5.918.918,0,0,0-.607-.185h-.819v1.968h.429v-.6h.444l.39.6h.429Zm-.135-.353a.5.5,0,0,1-.325.092h-.37v-.694h.37a.517.517,0,0,1,.325.089.3.3,0,0,1,.114.255A.311.311,0,0,1,561.905,185.91Z" transform="translate(-559.555 -183.994)" fill="#a86007"/></g></g></g></svg>