<svg xmlns="http://www.w3.org/2000/svg" width="21.479" height="21.15" viewBox="0 0 21.479 21.15"><path d="M9.654,20.454A2.148,2.148,0,1,0,11.8,22.6,2.154,2.154,0,0,0,9.654,20.454ZM3.375,3.6V5.748H5.523L9.39,13.58,7.773,16.212A2.138,2.138,0,0,0,9.819,19.38H22.377V17.315H10.082a.254.254,0,0,1-.269-.269,1.341,1.341,0,0,1,.114-.269L11,15.084h8a2.107,2.107,0,0,0,1.879-1.127l3.867-6.651a1.255,1.255,0,0,0,.107-.537A1.033,1.033,0,0,0,23.78,5.748H7.886L6.866,3.6ZM20.229,20.454A2.148,2.148,0,1,0,22.377,22.6,2.154,2.154,0,0,0,20.229,20.454Z" transform="translate(-3.375 -3.6)" fill="#fff"/></svg>