<svg xmlns="http://www.w3.org/2000/svg" width="23.975" height="23.975" viewBox="0 0 23.975 23.975"><path d="M11.988,23.975a11.759,11.759,0,0,1-4.659-.948,11.73,11.73,0,0,1-6.38-6.38,11.919,11.919,0,0,1,0-9.318A11.73,11.73,0,0,1,7.328.948a11.919,11.919,0,0,1,9.318,0,11.73,11.73,0,0,1,6.38,6.38,11.919,11.919,0,0,1,0,9.318,11.73,11.73,0,0,1-6.38,6.38,11.759,11.759,0,0,1-4.659.948ZM6.86,6.86,5.736,5.877a3.767,3.767,0,0,0-.609.059,3.874,3.874,0,0,1-.632.059q-.023-.023-.422-.866A10.169,10.169,0,0,0,1.5,11.988q0,.07.012.187t.012.164a6.593,6.593,0,0,0,.691.527A6.284,6.284,0,0,1,3,13.486H4.5a.709.709,0,0,1,.129-.07q.059-.023.129-.047l-.691-.761q-.456-.5-.69-.738.094-.539.258-1.627t.234-1.627q2.013-.843,3-1.241V6.861Zm4.706-3.816q-.328-.141-.609-.258-.07-.187-.094-.281-.141.445-.445,1.335a2.632,2.632,0,0,0,.269.047,2.632,2.632,0,0,1,.269.047h.609v-.89Zm-.094,11.028a1.373,1.373,0,0,0-.164.187q-.281.491-.8,1.5t-.773,1.5q.328.491.995,1.5t.995,1.5q3.044.187,4.613.281a.972.972,0,0,0,.375.8,10.486,10.486,0,0,0,3.606-2.985,10.1,10.1,0,0,0,1.943-4.274q-.445-.094-.972-.258t-.761-.222a7.142,7.142,0,0,0-.925-.117,5.341,5.341,0,0,0-1.44.082q-.281.023-.363-.363a3.826,3.826,0,0,1-.082-.8q0-.41-.094-.433a7.494,7.494,0,0,0-2.084.176,7.494,7.494,0,0,1-2.084.176q-.3.281-1.99,1.756Zm1.381-11.73q-.07.468-.246,1.4t-.269,1.428q.117-.023.386-.059a3.389,3.389,0,0,1,.387-.035,1.568,1.568,0,0,0-.164-.094q.351-.117.515-.187-.4-1.639-.609-2.458Zm2.716-.21a4.327,4.327,0,0,0-.047.726A4.524,4.524,0,0,1,15.288,4.1a.267.267,0,0,0,.094.094q.468-.047,1.568-.164a1.418,1.418,0,0,1,.491-.984,11.513,11.513,0,0,0-1.873-.913ZM18.5,3.771a2.063,2.063,0,0,1-.164.258,4.446,4.446,0,0,1,.585.117Q18.637,3.888,18.5,3.771Zm.632.562q-.07.141-.222.422t-.222.422q-.679.023-1.826.07l-.094-.8a1.164,1.164,0,0,1-.164.059.689.689,0,0,1-.187.035V5.691l-1.51.141-1.51.141q-.164.234-.351.515.632,1.358.96,2.037-.468.117-1.92.515v.8a.449.449,0,0,0,.035.141q.035.094.059.141.4.187,1.241.562t1.264.585l.515-.632q-.023-.234-.117-.737t-.141-.761q.07-.047.222-.129t.222-.129q.632-.187.96-.258.3.491.854,1.4l.691,1.147q.21-.187.585-.573t.562-.573q-1.264-.89-1.662-1.147.023-.187.094-.539h.866q1.311,1.124,2.693,2.294.023,0,.047-.035t.047-.035q-.094-.187-.609-1.147,0-.023.07-.094l.094-.094h.96a4.258,4.258,0,0,1,.4-.21,10.244,10.244,0,0,0-2.9-4.682Z" fill="#fff"/></svg>